Coordinates
version=1
nRows=8
nColumns=36
inDegrees=yes

Units are S.I. units (second, meters, Newtons, ...)
If the header above contains a line with 'inDegrees', this indicates whether rotational values are in degrees (yes) or radians (no).

endheader
time	pelvis_tilt	pelvis_list	pelvis_rotation	pelvis_tx	pelvis_ty	pelvis_tz	hip_flexion_r	hip_adduction_r	hip_rotation_r	knee_angle_r	knee_angle_r_beta	ankle_angle_r	subtalar_angle_r	mtp_angle_r	hip_flexion_l	hip_adduction_l	hip_rotation_l	knee_angle_l	knee_angle_l_beta	ankle_angle_l	subtalar_angle_l	mtp_angle_l	lumbar_extension	lumbar_bending	lumbar_rotation	arm_flex_r	arm_add_r	arm_rot_r	elbow_flex_r	pro_sup_r	arm_flex_l	arm_add_l	arm_rot_l	elbow_flex_l	pro_sup_l
      0.00000000	     -7.42411337	     -0.88805318	     -4.49077850	      0.71320958	      1.31684438	     -0.04797184	      5.15169981	      0.52129517	     -1.71107492	      0.50737320	      0.00885533	      1.35111588	     -1.48741505	     -5.63441993	      6.42233739	     -0.73591858	      2.01303741	      3.92740376	      0.06854613	      4.37634144	     -2.85756946	     -5.63441993	      0.24677198	      0.82993841	      0.84761796	     -3.37800626	    -10.61986846	      4.49469016	     16.84886835	     87.32942666	     -2.03901222	     -9.99084239	      2.26941981	     15.40038768	     86.66650136
      0.01666670	     -7.84263801	     -0.95793524	     -5.34533993	      0.71315248	      1.31783049	     -0.04758806	      5.46047223	      0.79589237	     -0.70731449	      0.36370994	      0.00634794	      3.10453972	     -0.01499127	     -5.68239239	      6.69789344	     -0.75666472	      1.44147774	      3.76488829	      0.06570970	      3.99167974	     -4.05833187	     -5.68239239	     -0.30154749	      0.79334713	      2.04082966	     -3.74033738	    -10.68306499	      4.99020165	     15.21428613	     87.77603243	     -2.06752349	     -9.51161611	      1.96894808	     13.89184010	     86.74603490
      0.03333330	     -8.23391838	     -0.99103861	     -5.72252821	      0.71253567	      1.31529008	     -0.04725181	      5.94839405	      0.99223648	     -0.39646729	      0.34778740	      0.00607004	      3.32149929	     -0.28458268	     -6.12791451	      6.94640326	     -0.80295798	      2.35362005	      3.26210984	      0.05693456	      4.65476781	     -3.91226096	     -6.12791451	     -0.61129926	      0.91127970	      1.85022311	     -3.29914682	    -11.05953974	      8.82124874	     13.95184247	     88.22536050	     -1.51528905	     -9.34610213	      3.39558765	     11.86112795	     86.18835264
      0.05000000	     -8.20528128	     -0.89325148	     -5.52812151	      0.71174699	      1.31496056	     -0.04743794	      5.92911494	      0.78087707	     -0.71982324	      0.43695921	      0.00762638	      3.94697027	     -0.02351646	     -6.26569870	      7.12758063	     -0.63500121	      2.49170755	      3.54597643	      0.06188896	      5.29743180	     -3.49041089	     -6.26569870	     -1.38543286	      0.70322101	      1.58086283	     -3.09166553	    -10.99018266	      9.26112900	     13.69005075	     87.08139442	     -1.21857693	     -9.32760864	      3.35626652	     11.47182429	     84.95656495
      0.06666670	     -8.30089573	     -0.73555360	     -5.59433515	      0.71115292	      1.31497754	     -0.04750038	      6.12590364	      0.58892836	     -0.97320537	      0.64547101	      0.01126559	      4.59488784	      0.41524710	     -6.48747563	      7.42368212	     -0.45336530	      2.35757793	      4.06294258	      0.07091173	      5.89229575	     -2.77349614	     -6.48747563	     -1.67148444	      0.47177724	      1.23008174	     -2.52680956	    -11.08088980	     12.24104178	     12.79878162	     88.21282652	     -1.07958450	     -9.47585733	      5.13254928	     10.74105145	     85.54134076
      0.08333330	     -8.28929256	     -0.51131276	     -5.98637325	      0.71052219	      1.31519691	     -0.04709253	      6.27838018	      0.33293268	     -0.96265344	      0.94236426	      0.01644736	      4.90306062	      0.45894281	     -6.90895177	      7.52865088	     -0.26954109	      1.85962320	      4.40634136	      0.07690516	      6.29680606	     -2.06479154	     -6.90895177	     -2.10416047	      0.13053939	      1.36038080	     -2.00092286	    -11.02116352	     14.20963542	     12.39265456	     87.58843763	     -0.88812647	     -9.51796245	      6.36266209	     10.27239042	     84.68639682
      0.10000000	     -8.33327040	     -0.30903236	     -6.25844247	      0.71016357	      1.31520776	     -0.04680343	      6.54017410	      0.10825381	     -0.85681658	      1.32938519	      0.02320215	      5.13682789	      0.28298207	     -7.11586740	      7.69319291	     -0.10609057	      1.46699683	      4.69107055	      0.08187463	      6.49319007	     -1.40498039	     -7.11586740	     -2.43952089	     -0.18836292	      1.45254075	     -1.65462305	    -10.91353081	     15.10062788	     12.21635614	     87.43440642	     -0.79734181	     -9.59876994	      7.01120090	     10.02157853	     84.59510198
      0.11666670	     -8.38089741	     -0.15618658	     -6.60079380	      0.70986000	      1.31537559	     -0.04646730	      6.80042104	     -0.02862613	     -0.61102499	      1.71152433	      0.02987173	      5.19693415	     -0.06474809	     -7.26719323	      7.84629528	     -0.00025454	      1.15093315	      4.88148870	      0.08519805	      6.69027419	     -0.90522212	     -7.26719323	     -2.77452862	     -0.46572497	      1.58641923	     -1.28500236	    -10.80265208	     15.77085380	     12.08388936	     87.26138763	     -0.63956409	     -9.73170769	      7.47739372	      9.91834224	     84.52758541
